<?xml version="1.0" encoding="UTF-8" standalone="no"?>
<svg
   width="96.109612"
   height="96.299797"
   viewBox="0 0 96.109612 96.299798"
   version="1.1"
   id="svg843"
   sodipodi:docname="lama-pilot9.svg"
   inkscape:version="1.1.1 (c3084ef, 2021-09-22)"
   inkscape:export-filename="/Users/czarles/Downloads/lama-pilot.png"
   inkscape:export-xdpi="256.19995"
   inkscape:export-ydpi="256.19995"
   xmlns:inkscape="http://www.inkscape.org/namespaces/inkscape"
   xmlns:sodipodi="http://sodipodi.sourceforge.net/DTD/sodipodi-0.dtd"
   xmlns="http://www.w3.org/2000/svg"
   xmlns:svg="http://www.w3.org/2000/svg">
  <defs
     id="defs847">
    <clipPath
       clipPathUnits="userSpaceOnUse"
       id="clipPath4270">
      <rect
         style="opacity:0.5;fill:#ffffff;fill-opacity:1;stroke:#000000;stroke-width:1;stroke-miterlimit:4;stroke-dasharray:none;stroke-opacity:1"
         id="rect4272"
         width="151.6218"
         height="98.619331"
         x="-22.156767"
         y="-36.059052" />
    </clipPath>
    <clipPath
       clipPathUnits="userSpaceOnUse"
       id="clipPath4270-9">
      <rect
         style="opacity:0.5;fill:#ffffff;fill-opacity:1;stroke:#000000;stroke-width:1;stroke-miterlimit:4;stroke-dasharray:none;stroke-opacity:1"
         id="rect4272-0"
         width="151.6218"
         height="98.619331"
         x="-22.156767"
         y="-36.059052" />
    </clipPath>
    <clipPath
       clipPathUnits="userSpaceOnUse"
       id="clipPath4471">
      <rect
         style="opacity:0.5;fill:#ffffff;fill-opacity:1;stroke:#000000;stroke-width:1;stroke-miterlimit:4;stroke-dasharray:none;stroke-opacity:1"
         id="rect4473"
         width="32.149033"
         height="53.871353"
         x="4.7647643"
         y="-36.236782" />
    </clipPath>
    <clipPath
       clipPathUnits="userSpaceOnUse"
       id="clipPath4270-0">
      <rect
         style="opacity:0.5;fill:#ffffff;fill-opacity:1;stroke:#000000;stroke-width:1;stroke-miterlimit:4;stroke-dasharray:none;stroke-opacity:1"
         id="rect4272-4"
         width="151.6218"
         height="98.619331"
         x="-22.156767"
         y="-36.059052" />
    </clipPath>
  </defs>
  <sodipodi:namedview
     id="namedview845"
     pagecolor="#ffffff"
     bordercolor="#666666"
     borderopacity="1.0"
     inkscape:pageshadow="2"
     inkscape:pageopacity="0.0"
     inkscape:pagecheckerboard="0"
     showgrid="false"
     inkscape:zoom="2.8736458"
     inkscape:cx="19.313445"
     inkscape:cy="61.420235"
     inkscape:window-width="1440"
     inkscape:window-height="847"
     inkscape:window-x="2560"
     inkscape:window-y="366"
     inkscape:window-maximized="0"
     inkscape:current-layer="svg843"
     fit-margin-top="0"
     fit-margin-left="0"
     fit-margin-right="0"
     fit-margin-bottom="0" />
  <path
     id="path841"
     d="m 202.11889,-1.3499013 c -0.96498,-0.00656 -1.92087,0.1476638 -2.82422,0.53515625 -5.5905,3.14761795 -5.07125,10.84234605 -2.90821,15.99804605 2.13511,5.332787 4.85321,10.538589 8.44532,15.027344 0.97055,1.093052 1.98171,1.557665 2.99609,1.595703 -1.06058,2.196777 -1.75574,4.54611 -1.92383,6.976562 0.46087,3.050284 -1.54845,5.570331 -2.51367,8.320313 -0.63165,4.936425 -6.5764,3.93306 -8.75391,7.99414 -2.13244,2.652502 -3.94967,5.746321 -3.51757,9.269532 0.31076,4.133886 -1.04014,8.820995 1.86718,12.300781 7.01155,7.944206 17.11628,12.373542 27.0586,15.460937 18.53324,5.838008 39.15726,2.282308 55.6582,-7.597656 4.36975,-3.233934 10.94618,-6.563859 11.41602,-12.746094 -0.19384,-3.939048 0.43002,-7.976586 -0.39649,-11.84375 -2.23989,-4.214241 -5.40718,-8.712617 -10.47265,-9.591796 l -3.89844,-9.025391 c 0.14013,-1.83532 -0.0335,-3.640646 -0.45313,-5.386719 3.40242,-1.465054 6.72798,-3.163673 8.35157,-6.705078 3.66719,-6.006302 7.53124,-12.872461 6.61523,-20.1621086 -0.41264,-3.4950713 -3.18467,-6.960099 -6.76953,-7.0546873 -0.51212,-0.013513 -1.04128,0.040026 -1.58203,0.1738282 -7.3268,1.287796 -12.51805,7.3882791 -17.11133,12.7480457 -0.79019,1.778191 -3.39197,2.914736 -4.25977,4.132813 -9.8521,-4.893071 -21.85293,-5.402478 -32.20312,-1.626953 -0.1185,-0.452473 -0.32176,-0.941262 -0.62891,-1.47461 C 219.53632,9.6246484 214.15941,3.1302258 206.82592,-0.31474503 205.3606,-0.88079285 203.72718,-1.3389607 202.11889,-1.3499013 Z m 0.18164,3.6601563 c 4.8742,0.096658 8.80499,4.2923849 12.19922,7.4511714 1.91822,2.7972486 7.3445,5.4118496 4.24218,9.1738276 -2.5965,-0.95083 -6.63581,4.567146 -7.47656,2.208985 0.82383,-2.773386 -4.47865,-2.988378 -2.92773,-5.888672 -4.15754,-0.01146 -3.10069,-10.9623914 -7.50782,-6.2597656 -0.29331,4.8628546 2.23892,9.5323226 4.62305,13.6445306 1.39234,1.262691 4.77653,6.924765 1.24414,3.78711 -4.04794,-5.463658 -7.85409,-11.77987 -8.32422,-18.7167961 0.0542,-1.8867109 0.59902,-4.3030256 2.38282,-5.292969 0.52484,-0.083434 1.04069,-0.117421 1.54492,-0.1074219 z m 77.40234,3.40625 c 0.46901,-5.427e-4 0.94732,0.041336 1.43359,0.1289063 4.33905,3.6560741 1.86352,10.0621847 0.002,14.4335927 -1.41203,2.067226 -3.76064,9.895255 -5.69335,7.660156 3.05429,-4.420782 5.52244,-9.584912 5.78125,-15.007812 -2.51773,-5.1422091 -4.61639,2.588008 -5.6211,4.775391 -3.18634,0.649218 -1.11975,4.703549 -4.72851,5.386718 0.48201,2.706851 -5.21453,-0.0412 -6.61329,-0.230468 -4.28395,-3.893005 1.57968,-7.195904 4.02149,-10.34961 3.14737,-2.9179646 6.88423,-6.7916274 11.41797,-6.796874 z m -28.03711,23.455077 c 0.58571,0.02932 1.18269,0.130668 1.78125,0.310547 5.17076,0.724681 12.32375,2.545956 12.82422,8.855469 0.12485,4.120589 0.20594,9.175934 -3.09766,12.15625 -5.12328,2.439011 -12.53759,2.096348 -16.36132,-2.574219 -2.10034,-3.301092 -2.31056,-7.398409 -2.24414,-11.199219 -0.53744,-4.440975 2.99769,-7.754036 7.09765,-7.548828 z m -24.68359,0.121094 c 2.54103,0.0038 4.83488,0.803809 5.95898,3.429687 1.35924,4.951631 1.03208,10.676077 -1.51562,15.197266 -3.11054,4.29073 -8.91189,4.290928 -13.60157,3.679688 -4.89186,-0.584126 -5.72819,-6.175717 -5.92382,-10.140625 -0.92245,-5.109292 2.63611,-9.847062 7.64648,-10.822266 2.10646,-0.556379 4.89452,-1.347535 7.43555,-1.34375 z m 12.90234,9.228516 c 0.63826,0.02761 1.19508,0.17907 1.53906,0.492187 3.68543,1.876077 -2.07961,4.272482 -3.88086,2.910156 -4.73097,-1.327158 -0.42398,-3.521973 2.3418,-3.402343 z m -1.39648,12.111328 c 4.03186,-0.05733 5.78269,4.470113 9.79101,5.8125 6.26841,2.036639 14.28771,2.569242 19.57617,-2.052735 1.80433,-6.412859 2.39753,-2.430291 3.26368,-0.789062 v 26.126953 c -2.90147,3.793623 -9.91276,4.783167 -14.625,6.642578 -16.38916,5.192588 -34.54555,2.226025 -49.375,-6.097656 V 53.603223 l 0.76562,-1.775391 c 1.20406,0.162761 3.7688,4.923847 6.68945,5.089844 7.51242,2.10174 17.47235,1.220284 22.03321,-5.957031 0.68233,-0.217981 1.30488,-0.319936 1.88086,-0.328125 z" />
  <path
     style="fill:#000000;stroke-width:0.0325497"
     d="m 248.82414,70.408732 c -4.01155,-3.265367 0.26942,-11.048456 5.46497,-10.343691 5.29333,-0.983278 9.99217,8.209464 4.86198,10.385628 -3.15626,-0.967563 -1.2906,-8.745294 -6.66787,-5.785605 -2.20175,1.36366 0.363,6.269534 -3.65908,5.743668 z"
     id="path1363" />
  <path
     style="fill:#000000;stroke-width:0.0325497"
     d="m 219.15298,70.428454 c -3.9433,-2.894208 -0.31292,-10.321915 4.50812,-10.321411 4.70302,-0.765143 8.63557,3.670985 7.8637,8.263915 -1.13679,4.601134 -5.64489,0.306788 -4.38802,-2.887934 -3.51469,-3.848315 -6.17004,1.117361 -6.11196,4.362666 -0.44862,0.567015 -1.21239,0.653291 -1.87184,0.582764 z"
     id="path1361" />
  <path
     style="fill:#000000;stroke-width:0.0248366"
     d="m 242.58138,84.885332 c -2.08915,-0.88753 -3.20624,-2.207874 -5.25063,-0.29335 -3.30441,0.992203 -2.7444,-3.589105 0.14674,-3.452867 1.2338,-1.003397 0.4328,-2.788737 0.65816,-4.176013 0.32727,-1.388908 -0.32543,-2.330384 -1.47791,-3.043669 -3.87906,-1.334584 -0.52928,-6.10129 1.73201,-2.618435 1.5987,2.783933 4.62182,-4.301877 5.83014,0.239529 -0.0675,2.01275 -3.37194,2.363918 -2.97956,4.452754 0.0892,1.48704 -0.17984,3.084106 0.13506,4.501805 0.69748,1.144305 5.93911,2.914265 1.20599,4.390246 z"
     id="path1359" />
  <path
     style="fill:#000000;stroke-width:0.0345755"
     d="m 51.598702,84.885755 c -2.908346,-1.235548 -4.463469,-3.073624 -7.309504,-0.408378 -4.600134,1.381265 -3.820533,-4.996463 0.204279,-4.806804 1.717597,-1.396848 0.60251,-3.882255 0.916238,-5.813509 0.455599,-1.933526 -0.453038,-3.244173 -2.057428,-4.237151 -5.400115,-1.8579 -0.736821,-8.493725 2.411165,-3.645175 2.225582,3.875568 6.434126,-5.988727 8.116252,0.333453 -0.09397,2.801989 -4.694143,3.290857 -4.147904,6.198766 0.124177,2.070138 -0.250358,4.293444 0.18802,6.267051 0.970976,1.593009 8.267951,4.057005 1.678882,6.111747 z"
     id="path1359-9" />
  <path
     style="fill:none;stroke:#000000;stroke-width:5.5246;stroke-linecap:round;stroke-linejoin:miter;stroke-miterlimit:4;stroke-dasharray:none;stroke-opacity:1"
     d="m 37.885472,120.09765 c -2.35239,6.42628 3.77602,10.42393 10.68986,10.31757 6.91384,-0.10637 12.97675,-4.68014 10.10484,-10.31757"
     id="path3444"
     inkscape:export-filename="/Users/czarles/Downloads/lama-pilot3.png"
     inkscape:export-xdpi="256.19995"
     inkscape:export-ydpi="256.19995" />
  <path
     id="path2342"
     style="fill:none;stroke:#000000;stroke-width:5.76414;stroke-linecap:round;stroke-linejoin:miter;stroke-miterlimit:4;stroke-dasharray:none;stroke-opacity:1"
     d="m 47.878781,161.99833 0.131952,-10.17346 m -5.014405,-2.19337 c 3.496891,2.89338 6.268012,3.17337 9.764904,-0.18667 m -4.882458,12.5535 c -2.441229,1.58668 -12.092786,2.47066 -14.845295,-1.58669 -2.067162,-3.04711 -0.791756,-18.34022 14.911269,-18.15355 15.703036,0.18667 17.204839,15.85915 14.647373,18.48023 -3.232984,3.31336 -11.084497,3.17336 -14.713347,1.26001 z"
     sodipodi:nodetypes="cccccsssc"
     inkscape:export-filename="/Users/czarles/Downloads/lama-pilot3.png"
     inkscape:export-xdpi="256.19995"
     inkscape:export-ydpi="256.19995" />
  <path
     id="path841-7"
     d="M 11.064082,2.0247036e-4 C 10.099112,-0.00639753 9.1432124,0.14786647 8.2398724,0.53535947 2.6493724,3.6829775 3.1686224,11.377705 5.3316624,16.533405 c 2.13511,5.332787 4.8532096,10.538589 8.4453196,15.027344 0.97055,1.093052 1.98171,1.557665 2.99609,1.595703 -1.06058,2.196777 -1.75574,4.54611 -1.92383,6.976562 0.46087,3.050284 -1.54845,5.570331 -2.51367,8.320313 -0.63165,4.936425 -6.5763996,3.93306 -8.7539096,7.99414 -2.13244,2.652502 -3.94966999,5.746321 -3.51757999,9.269532 0.31076,4.133886 -1.04013,8.820995 1.86718999,12.300781 7.01154,7.944206 17.1162796,12.373542 27.0585996,15.460937 18.53324,5.838011 39.15726,2.282308 55.6582,-7.597656 4.36975,-3.233934 10.946175,-6.563859 11.416014,-12.746094 -0.193832,-3.939048 0.43002,-7.976586 -0.396484,-11.84375 -2.23989,-4.214241 -5.40718,-8.712617 -10.47266,-9.591796 l -3.89843,-9.025391 c 0.14012,-1.83532 -0.0335,-3.640646 -0.45313,-5.386719 3.40242,-1.465054 6.72798,-3.163673 8.35156,-6.705078 3.6672,-6.006302 7.531252,-12.872461 6.615238,-20.162109 -0.412644,-3.4950705 -3.184668,-6.9600985 -6.769528,-7.0546865 -0.51213,-0.01351 -1.04129,0.04003 -1.58204,0.173828 -7.3268,1.287796 -12.51804,7.3882785 -17.11132,12.7480455 -0.79019,1.778191 -3.39198,2.914736 -4.25977,4.132813 -9.8521,-4.893071 -21.85293,-5.402478 -32.20312,-1.626953 -0.1185,-0.452473 -0.32177,-0.941262 -0.62891,-1.47461 C 28.481522,10.974752 23.104612,4.4803295 15.771122,1.0353595 14.305802,0.46931147 12.672382,0.01114347 11.064082,2.0247036e-4 Z M 11.245732,3.6603595 c 4.8742,0.09666 8.80499,4.292385 12.19921,7.4511705 1.91823,2.797249 7.34451,5.41185 4.24219,9.173828 -2.5965,-0.95083 -6.63581,4.567146 -7.47656,2.208985 0.82383,-2.773386 -4.47865,-2.988378 -2.92774,-5.888672 -4.15753,-0.01146 -3.10068,-10.9623915 -7.5078096,-6.259766 -0.29331,4.862855 2.2389196,9.532323 4.6230496,13.644531 1.39234,1.262691 4.77653,6.924765 1.24414,3.78711 -4.04794,-5.463658 -7.8540896,-11.77987 -8.3242196,-18.7167956 0.0542,-1.8867109 0.59902,-4.3030259 2.38281,-5.2929689 0.5248396,-0.08343 1.0406996,-0.117421 1.5449296,-0.107422 z m 77.40234,3.40625 c 0.46901,-5.43e-4 0.94731,0.04134 1.43359,0.128906 4.33904,3.6560735 1.86352,10.0621845 0.002,14.4335925 -1.41204,2.067226 -3.76065,9.895255 -5.69336,7.660156 3.0543,-4.420782 5.52244,-9.584912 5.78125,-15.007812 -2.51772,-5.1422086 -4.61638,2.588008 -5.62109,4.775391 -3.18634,0.649218 -1.11975,4.703549 -4.72852,5.386718 0.48201,2.706851 -5.21452,-0.0412 -6.61328,-0.230468 -4.28395,-3.893005 1.57967,-7.195904 4.02149,-10.34961 3.14737,-2.917965 6.88422,-6.7916275 11.41796,-6.7968735 z M 60.610962,30.521686 c 0.58571,0.02932 1.18269,0.130668 1.78125,0.310547 5.17076,0.724681 12.32375,2.545956 12.82422,8.855469 0.12485,4.120589 0.20594,9.175934 -3.09766,12.15625 -5.12329,2.439011 -12.53759,2.096348 -16.36133,-2.574219 -2.10034,-3.301092 -2.31056,-7.398409 -2.24414,-11.199219 -0.53743,-4.440975 2.9977,-7.754036 7.09766,-7.548828 z m -24.68359,0.121094 c 2.54103,0.0038 4.83488,0.803809 5.95898,3.429687 1.35924,4.951631 1.03208,10.676077 -1.51562,15.197266 -3.11055,4.29073 -8.9119,4.290928 -13.60157,3.679688 -4.89186,-0.584126 -5.7282,-6.175717 -5.92383,-10.140625 -0.92245,-5.109292 2.63612,-9.847062 7.64649,-10.822266 2.10645,-0.556379 4.89451,-1.347535 7.43555,-1.34375 z m 12.90234,9.228516 c 0.63826,0.02761 1.19507,0.17907 1.53906,0.492187 3.68543,1.876077 -2.07961,4.272482 -3.88086,2.910156 -4.73097,-1.327158 -0.42399,-3.521973 2.3418,-3.402343 z m -1.39648,12.111328 c 4.03185,-0.05733 5.78269,4.470113 9.79101,5.8125 6.26841,2.036639 14.2877,2.569242 19.57617,-2.052735 1.80433,-6.412859 2.39753,-2.430291 3.26367,-0.789062 V 81.08028 c -2.90146,3.793623 -9.91276,4.783167 -14.625,6.642578 -16.38916,5.192588 -34.54554,2.226025 -49.375,-6.097656 V 54.953327 l 0.76563,-1.775391 c 1.20405,0.162761 3.76879,4.923847 6.68945,5.089844 7.51242,2.10174 17.47235,1.220284 22.03321,-5.957031 0.68233,-0.217981 1.30487,-0.319936 1.88086,-0.328125 z"
     inkscape:export-filename="/Users/czarles/Downloads/lama-pilot3.png"
     inkscape:export-xdpi="256.19995"
     inkscape:export-ydpi="256.19995" />
  <circle
     style="fill:#000000"
     id="path1000"
     cx="64.547447"
     cy="-37.653931"
     r="5.75"
     inkscape:export-filename="/Users/czarles/Downloads/lama-pilot2.png"
     inkscape:export-xdpi="256.19995"
     inkscape:export-ydpi="256.19995" />
  <circle
     style="fill:#000000"
     id="path1000-3"
     cx="31.475117"
     cy="-37.554688"
     r="5.75"
     inkscape:export-filename="/Users/czarles/Downloads/lama-pilot2.png"
     inkscape:export-xdpi="256.19995"
     inkscape:export-ydpi="256.19995" />
  <circle
     style="fill:#000000;stroke-width:0.75792"
     id="path1000-3-6"
     cx="32.282669"
     cy="42.157028"
     r="4.3580399"
     inkscape:export-filename="/Users/czarles/Downloads/lama-pilot2.png"
     inkscape:export-xdpi="256.19995"
     inkscape:export-ydpi="256.19995" />
  <circle
     style="fill:#000000;stroke-width:0.75792"
     id="circle1436"
     cx="64.282669"
     cy="42.157028"
     r="4.3580399"
     inkscape:export-filename="/Users/czarles/Downloads/lama-pilot2.png"
     inkscape:export-xdpi="256.19995"
     inkscape:export-ydpi="256.19995" />
</svg>
