<?xml version="1.0" encoding="UTF-8" standalone="no"?>
<svg
   width="96"
   height="98.987389"
   viewBox="0 0 96 98.98739"
   version="1.1"
   id="svg843"
   sodipodi:docname="lama-pilot.svg"
   inkscape:version="1.1.1 (c3084ef, 2021-09-22)"
   xmlns:inkscape="http://www.inkscape.org/namespaces/inkscape"
   xmlns:sodipodi="http://sodipodi.sourceforge.net/DTD/sodipodi-0.dtd"
   xmlns="http://www.w3.org/2000/svg"
   xmlns:svg="http://www.w3.org/2000/svg">
  <defs
     id="defs847">
    <clipPath
       clipPathUnits="userSpaceOnUse"
       id="clipPath4270">
      <rect
         style="opacity:0.5;fill:#ffffff;fill-opacity:1;stroke:#000000;stroke-width:1;stroke-miterlimit:4;stroke-dasharray:none;stroke-opacity:1"
         id="rect4272"
         width="151.6218"
         height="98.619331"
         x="-22.156767"
         y="-36.059052" />
    </clipPath>
  </defs>
  <sodipodi:namedview
     id="namedview845"
     pagecolor="#ffffff"
     bordercolor="#666666"
     borderopacity="1.0"
     inkscape:pageshadow="2"
     inkscape:pageopacity="0.0"
     inkscape:pagecheckerboard="0"
     showgrid="false"
     inkscape:zoom="2.3017799"
     inkscape:cx="-60.170827"
     inkscape:cy="57.998595"
     inkscape:window-width="2560"
     inkscape:window-height="1027"
     inkscape:window-x="0"
     inkscape:window-y="25"
     inkscape:window-maximized="1"
     inkscape:current-layer="svg843"
     fit-margin-top="0"
     fit-margin-left="0"
     fit-margin-right="0"
     fit-margin-bottom="0" />
  <path
     d="m 25.013,26.011389 c 5.995,-4.396 14.132,-7.024 22.987,-7.024 8.855,0 16.992,2.628 22.987,7.024 3.64,2.67 6.553,6.05 8.278,9.92 1.615,2.744 2.114,5.94 1.968,9.397 l 3.898,9.026 0.355,0.07 a 10.996,10.996 0 0 1 6.794,4.394 l 2.416,3.382 a 7,7 0 0 1 1.304,4.069 v 9.718 c 0,2.116 -1.238,3.947 -2.258,5.17 -1.122,1.347 -2.547,2.616 -3.868,3.673 a 52.899,52.899 0 0 1 -3.647,2.653 c -0.51,0.34 -1.025,0.671001 -1.546,0.993001 l -0.061,0.037 -0.036,0.022 -0.002,10e-4 -0.024,0.015 -0.158,0.099 c -0.134,0.083 -0.327,0.201 -0.576,0.348 -0.704,0.415 -1.417,0.815 -2.139,1.199 a 76.495,76.495 0 0 1 -7.768,3.58 c -6.536,2.587 -15.672,5.21 -25.917,5.21 -10.245,0 -19.381,-2.622 -25.917,-5.21 a 76.495,76.495 0 0 1 -7.768,-3.58 55.966,55.966 0 0 1 -2.14,-1.199 34.102,34.102 0 0 1 -0.733,-0.447 l -0.024,-0.015 -0.002,-10e-4 -0.038,-0.023 -0.059,-0.036 -0.345,-0.215 a 54.57,54.57 0 0 1 -1.2,-0.778001 52.918,52.918 0 0 1 -3.648,-2.653 c -1.321,-1.057 -2.746,-2.326 -3.868,-3.672 -1.02,-1.225 -2.258,-3.055 -2.258,-5.171 v -9.718 a 7,7 0 0 1 1.304,-4.069 l 2.416,-3.382 a 10.998,10.998 0 0 1 6.794,-4.393 l 0.355,-0.071 3.898,-9.026 c -0.146,-3.457 0.353,-6.654 1.968,-9.398 1.725,-3.87 4.637,-7.249 8.278,-9.919 z M 16,57.607389 v 26.671 c 0.326,0.184 0.706,0.394 1.138,0.624 a 70.399,70.399 0 0 0 7.154,3.295001 c 6.089,2.412 14.453,4.79 23.708,4.79 9.255,0 17.618,-2.378 23.708,-4.789 a 70.406,70.406 0 0 0 7.154,-3.296001 c 0.432,-0.23 0.812,-0.44 1.138,-0.624 v -26.671 l -0.983,-2.275 a 11.56,11.56 0 0 1 -2.281,3.065 c -3.167,3.016 -7.836,3.88 -13.914,3.348 -5.658,-0.495 -9.622,-2.8 -12.098,-6.457 a 13.9,13.9 0 0 1 -0.213,-0.324 c -1.674,0.031 -3.348,0.031 -5.022,0 -0.07,0.109 -0.141,0.217 -0.213,0.324 -2.476,3.657 -6.44,5.962 -12.098,6.457 -6.077,0.532 -10.747,-0.332 -13.914,-3.348 a 11.586,11.586 0 0 1 -2.282,-3.065 z m 24.307,-5.683 c 1.427,-2.108 2.097,-5.107 2.247,-8.826 0.185,-4.606 -0.683,-7.105 -1.965,-8.337 -1.187,-1.139 -3.597,-1.991 -8.71,-0.981 -5.191,1.025 -7.925,2.568 -9.368,4.328 -1.388,1.692 -2.022,4.13 -1.677,8.076 0.199,2.276 0.53,4.003 1.007,5.316 0.358,0.985 0.799,1.738 1.328,2.315 0.075,0.082 0.153,0.161 0.233,0.237 1.21,1.153 3.471,2.073 8.261,1.789 0.32,-0.019 0.65,-0.043 0.992,-0.073 1.952,-0.171 3.472,-0.603 4.67,-1.216 a 7.8,7.8 0 0 0 2.982,-2.628 z m 15.386,0 a 7.8,7.8 0 0 0 2.982,2.628 c 1.198,0.613 2.718,1.045 4.67,1.216 5.475,0.479 7.962,-0.486 9.253,-1.716 0.634,-0.604 1.151,-1.425 1.56,-2.551 0.478,-1.314 0.808,-3.04 1.008,-5.317 0.345,-3.946 -0.289,-6.384 -1.677,-8.076 -1.443,-1.76 -4.177,-3.303 -9.368,-4.328 -5.113,-1.01 -7.523,-0.158 -8.71,0.981 -1.282,1.232 -2.15,3.731 -1.965,8.337 0.15,3.719 0.82,6.718 2.247,8.826 z m -9.27,-5.997 a 6.498,6.498 0 0 1 3.154,0 l 0.06,0.015 a 1.498,1.498 0 0 0 1.463,-0.399 1.498,1.498 0 0 0 -0.736,-2.511 l -0.06,-0.015 a 9.504,9.504 0 0 0 -4.608,0 l -0.06,0.015 a 1.498,1.498 0 0 0 -0.73,2.508 1.5,1.5 0 0 0 1.458,0.402 l 0.06,-0.015 z"
     id="path841" />
  <path
     style="fill:#000000;stroke-width:0.0325497"
     d="m 63.70525,74.412931 c -0.642928,-0.155738 -1.203768,-0.666922 -1.426239,-1.299913 -0.131291,-0.373542 -0.132219,-0.545 -0.01131,-2.083133 0.06192,-0.787744 0.135003,-1.588133 0.162404,-1.778674 0.167264,-1.163257 0.638854,-2.099548 1.511695,-3.001384 0.433616,-0.448019 0.727154,-0.692851 1.204336,-1.004445 0.892405,-0.582818 1.913683,-0.96622 2.979923,-1.118827 0.535627,-0.07668 1.554972,-0.07616 2.08155,0 2.152325,0.31548 4.0191,1.523691 5.061183,3.275741 0.32142,0.540417 0.530806,1.169347 0.633008,1.901408 0.06489,0.464782 0.246127,2.789673 0.246127,3.157182 0,0.537111 -0.206185,1.034084 -0.587018,1.414934 -0.414028,0.414028 -0.917875,0.60486 -1.528708,0.579048 -0.568509,-0.02378 -1.0617,-0.254345 -1.433646,-0.669359 -0.175832,-0.196168 -0.390218,-0.604685 -0.450374,-0.85816 -0.01984,-0.0837 -0.08788,-0.801374 -0.151157,-1.594918 -0.06329,-0.793545 -0.136997,-1.530709 -0.163806,-1.638132 -0.157039,-0.629162 -1.037652,-1.286051 -2.015084,-1.503157 -0.346651,-0.07703 -1.003702,-0.06885 -1.358683,0.01682 -0.429811,0.103768 -0.783683,0.252836 -1.095115,0.461301 -0.467513,0.31287 -0.804663,0.711121 -0.881506,1.041218 -0.01874,0.08057 -0.08553,0.790934 -0.148402,1.57862 -0.06287,0.787744 -0.128321,1.499735 -0.145455,1.582274 -0.152386,0.733917 -0.77315,1.36946 -1.506551,1.542368 -0.252228,0.05951 -0.7276,0.05852 -0.977171,0 z"
     id="path1363" />
  <path
     style="fill:#000000;stroke-width:0.0325497"
     d="m 22.034089,74.432653 c -0.560517,-0.121518 -1.11091,-0.534966 -1.376026,-1.03362 -0.135931,-0.255679 -0.235204,-0.6432 -0.235123,-0.917846 0,-0.276212 0.216713,-2.968555 0.261317,-3.247725 0.198191,-1.240692 0.67147,-2.149663 1.608277,-3.089028 1.11001,-1.113027 2.573761,-1.813301 4.249681,-2.033192 0.388106,-0.05104 1.424058,-0.05163 1.790234,0 0.866054,0.119023 1.612603,0.343786 2.338087,0.703987 1.659029,0.823648 2.879461,2.17211 3.313298,3.660825 0.139404,0.478412 0.19956,0.948007 0.324267,2.531326 0.118141,1.499967 0.119858,1.545267 0.0685,1.806514 -0.156029,0.793545 -0.757727,1.422069 -1.536017,1.604374 -0.3286,0.07703 -0.837063,0.05046 -1.130827,-0.05853 -0.699683,-0.260086 -1.205293,-0.845689 -1.328202,-1.538307 -0.01589,-0.0895 -0.07345,-0.741341 -0.127915,-1.448461 -0.113763,-1.476997 -0.14005,-1.68726 -0.235749,-1.885747 -0.08819,-0.182943 -0.468906,-0.58537 -0.730176,-0.771793 -0.95502,-0.681482 -2.304968,-0.768255 -3.37267,-0.216817 -0.491904,0.254055 -0.92117,0.639952 -1.098474,0.987508 -0.09198,0.180275 -0.121169,0.412172 -0.243701,1.935688 -0.06191,0.769763 -0.133019,1.474736 -0.15803,1.566555 -0.08831,0.324181 -0.252373,0.60196 -0.508904,0.861525 -0.422549,0.427484 -0.778417,0.583977 -1.367325,0.601321 -0.205878,0.0064 -0.432915,0 -0.504519,-0.0174 z"
     id="path1361" />
  <path
     style="fill:#000000;stroke-width:0.0325497"
     d="M 52.354111,91.20427 C 52.131923,91.16657 51.498729,90.98281 51.23522,90.87916 50.377843,90.54187 49.638027,90.0884 48.897568,89.4463 l -0.315503,-0.2736 -0.237844,0.20063 c -0.766607,0.6468 -1.818394,1.1766 -2.871329,1.44649 -0.643489,0.1649 -1.12494,0.22384 -1.458686,0.17854 -0.816914,-0.11091 -1.499533,-0.71118 -1.7065,-1.50067 -0.072,-0.27459 -0.07065,-0.76147 0.0029,-1.0375 0.161579,-0.606835 0.648947,-1.155489 1.214909,-1.367665 0.102677,-0.03828 0.362457,-0.103942 0.577284,-0.145357 0.214828,-0.04176 0.485808,-0.107132 0.602174,-0.145936 0.696406,-0.232362 1.303579,-0.693083 1.681843,-1.276248 l 0.140937,-0.217281 v -3.397951 -3.397954 l -1.936887,-1.678907 c -1.06529,-0.923414 -1.996192,-1.749962 -2.068667,-1.836852 -0.523266,-0.627132 -0.594558,-1.600719 -0.169799,-2.318685 0.148906,-0.251618 0.408268,-0.521856 0.648391,-0.675449 0.649249,-0.415304 1.559356,-0.421394 2.182354,-0.0145 0.104006,0.06792 0.858937,0.704161 1.677619,1.41389 0.818683,0.709729 1.495641,1.290401 1.504347,1.290401 0.0087,0 0.620676,-0.552946 1.359929,-1.228743 1.539237,-1.407162 1.566289,-1.430189 1.83956,-1.567077 0.305545,-0.153071 0.533156,-0.203534 0.919754,-0.20394 0.438645,-4.64e-4 0.768144,0.09756 1.120689,0.333346 0.300103,0.200749 0.500569,0.425222 0.669446,0.749693 0.160628,0.308636 0.226978,0.583514 0.226978,0.940235 0,0.464896 -0.136563,0.874864 -0.413494,1.24133 -0.06271,0.08295 -0.873902,0.844645 -1.80264,1.692539 l -1.688618,1.541729 -3.24e-4,3.499053 -3.25e-4,3.49911 0.177536,0.261654 c 0.612945,0.903402 1.36225,1.475025 2.263965,1.72705 0.606744,0.169602 1.005976,0.439375 1.299333,0.877935 0.23579,0.35255 0.333798,0.68207 0.33334,1.12069 -4.23e-4,0.39709 -0.05064,0.61396 -0.220633,0.95206 -0.166505,0.33126 -0.558161,0.71727 -0.891245,0.87847 -0.36487,0.17656 -0.853543,0.25672 -1.204336,0.1975 z"
     id="path1359" />
  <path
     id="path2324"
     style="fill:#000000;stroke-width:0.028221"
     d="m 18.110201,-20.987254 c -0.137085,-0.001 -0.273719,0.0036 -0.410292,0.01273 -1.092609,0.07364 -2.170749,0.472714 -3.261144,1.199342 -0.603651,0.402271 -0.990038,0.714881 -1.499064,1.212797 -0.910211,0.890333 -1.555097,1.778702 -2.185294,3.01052 -1.094395,2.139151 -1.732343,4.73387 -1.942942,7.901985 -0.21395,3.218538 -0.143922,6.366415 0.212382,9.538494 0.449151,3.998716 1.264066,7.224817 2.524792,9.995825 0.131629,0.289298 0.239248,0.541029 0.239248,0.559631 0,0.01855 -0.0388,0.127647 -0.0863,0.242348 -0.305481,0.737629 -0.671439,2.122423 -0.766323,2.900456 -0.0065,0.05328 -0.09363,0.120192 -0.41701,0.319355 -1.801867,1.109879 -3.383776,2.623412 -4.576248,4.37833 -1.5086761,2.220268 -2.3554742,4.632226 -2.5377102,7.228672 -0.041949,0.597671 -0.018674,1.930352 0.043404,2.497402 0.2592028,2.36699 1.0693213,4.699304 2.2917412,6.597744 l 0.150377,0.233566 -0.223751,0.316755 C 5.173459,37.856414 4.6862887,38.756202 4.3638858,39.5636 2.9522471,43.098875 3.2255421,47.309263 5.074919,50.519 c 0.09119,0.158196 0.165869,0.29599 0.165869,0.306427 0,0.01091 -0.105918,0.141467 -0.235631,0.290935 -1.742528,2.008067 -2.6937389,4.383713 -2.7748952,6.932064 -0.074316,2.333551 0.6931246,4.758528 2.1269016,6.722791 0.1290477,0.176743 0.2346007,0.327666 0.2346007,0.335357 0,0.0073 -0.078752,0.1051 -0.1746518,0.21651 -0.8080547,0.938864 -1.5967168,2.265836 -2.0917621,3.51951 -0.5901301,1.494495 -0.8477055,2.837467 -0.8479709,4.416588 -7.64e-5,0.819854 0.038894,1.283113 0.1674329,1.989957 C 2.1475509,78.014 3.6391785,80.57186 5.870711,82.49538 l 0.107482,0.0926 -0.153468,0.33072 c -0.483799,1.0422 -0.804009,2.22839 -0.938917,3.47765 -0.05273,0.4883 -0.0601,1.62203 -0.01346,2.0742 0.219607,2.12766 0.94956,3.90292 2.233866,5.43248 0.342826,0.40831 1.016633,1.06827 1.422068,1.39261 1.386199,1.10895 3.09112,1.8876 4.825836,2.20441 0.662842,0.1211 0.572494,0.0618 0.690879,0.45268 0.816893,2.69729 3.078132,4.98069 5.703776,5.75905 0.767093,0.22742 1.332157,0.30357 2.255053,0.30437 1.631351,0.002 3.023142,-0.33455 4.596399,-1.11048 0.86631,-0.42725 1.618324,-0.90353 2.394572,-1.51611 0.143213,-0.1131 0.267367,-0.20566 0.275939,-0.20566 0.0085,0 0.173615,0.11347 0.366368,0.25164 1.355101,0.97164 2.905936,1.57305 4.514756,1.75125 2.103094,0.23293 4.379956,-0.33347 6.152306,-1.53059 l 0.224782,-0.15201 0.330712,0.21651 c 0.35855,0.23449 0.952093,0.54759 1.37866,0.72757 1.162006,0.49026 2.368075,0.72141 3.71123,0.71103 l 0.564286,-0.004 0.352922,0.11219 c 2.475872,0.78767 5.311158,0.38067 7.572829,-1.08669 l 0.278516,-0.18038 0.08892,0.0676 c 0.04891,0.0375 0.222183,0.14983 0.384979,0.25009 1.275167,0.78473 2.633232,1.24142 4.103943,1.37971 0.513136,0.0482 1.645726,0.0194 2.118623,-0.0538 1.620815,-0.25107 3.102582,-0.88173 4.417097,-1.87938 l 0.127102,-0.0966 0.307973,0.24027 c 1.892166,1.47406 3.87014,2.32953 5.928048,2.56408 0.482752,0.0551 1.807832,0.0384 2.243689,-0.0278 1.674674,-0.25475 3.272142,-1.08582 4.557637,-2.37132 1.079004,-1.079 1.900185,-2.47943 2.270563,-3.87348 0.02818,-0.10619 0.04091,-0.11983 0.113101,-0.11983 0.130921,0 0.810599,-0.13256 1.223126,-0.23822 2.66447,-0.6829 5.03006,-2.39763 6.378124,-4.62275 1.315952,-2.17212 1.73728,-4.82527 1.189014,-7.49117 -0.155832,-0.75802 -0.456567,-1.67253 -0.763231,-2.32017 l -0.152377,-0.32141 0.119829,-0.10183 c 0.569323,-0.48113 1.221326,-1.15856 1.714023,-1.78119 1.231272,-1.55599 2.073219,-3.33886 2.452452,-5.1922 0.166742,-0.815022 0.211037,-1.279044 0.212892,-2.229219 0.0018,-0.900697 -0.01637,-1.141264 -0.141103,-1.919169 -0.344213,-2.135751 -1.291023,-4.199351 -2.741314,-5.974543 l -0.235621,-0.288353 0.195326,-0.263005 c 0.863949,-1.164666 1.525516,-2.567262 1.866455,-3.957711 0.233639,-0.952793 0.296117,-1.498587 0.29559,-2.568717 -5.46e-4,-0.882478 -0.02818,-1.217162 -0.158559,-1.904713 -0.36225,-1.909277 -1.297696,-3.816754 -2.588864,-5.277464 -0.102919,-0.116374 -0.203691,-0.232548 -0.223747,-0.258369 -0.03128,-0.04018 -0.01091,-0.09073 0.138557,-0.350867 0.811726,-1.409124 1.33379,-3.042322 1.53679,-4.808768 0.06237,-0.542975 0.08437,-1.719042 0.04291,-2.286074 -0.174379,-2.383555 -0.925209,-4.534471 -2.204921,-6.317137 l -0.189126,-0.26406 0.190162,-0.300735 c 1.293877,-2.045453 2.090584,-4.465466 2.287601,-6.946539 0.0391,-0.494516 0.03891,-1.742898 -5.27e-4,-2.229214 -0.246531,-3.039958 -1.421216,-5.869407 -3.445103,-8.297802 -0.398799,-0.478515 -1.223271,-1.313316 -1.720224,-1.741935 -0.653003,-0.563195 -1.563665,-1.22129 -2.138279,-1.545045 l -0.20049,-0.112738 -0.032,-0.197926 C 83.920474,13.718008 83.110767,11.812986 81.740646,9.979333 81.564631,9.743822 81.465076,9.585899 81.473495,9.556114 c 0.871222,-3.083453 1.340627,-6.169015 1.549191,-10.178749 0.046,-0.884224 0.04619,-3.852631 0,-4.755546 -0.1251,-2.447702 -0.330245,-4.011676 -0.739463,-5.643438 -0.46435,-1.851653 -1.10557,-3.356968 -2.007522,-4.712669 -0.964776,-1.450091 -2.151916,-2.562079 -3.593407,-3.365514 -1.432071,-0.798179 -2.954605,-1.012416 -4.463083,-0.627328 -0.52141,0.133103 -0.846911,0.258641 -1.46342,0.564286 -2.423977,1.201761 -4.542763,3.308928 -6.328502,6.292863 -1.614724,2.698146 -3.480651,7.140373 -4.687867,11.161054 -0.37896,1.262147 -0.829127,2.966697 -1.065512,4.035737 -0.04291,0.194017 -0.08019,0.356631 -0.08328,0.361195 -0.0036,0.0055 -0.156195,-0.01636 -0.340521,-0.048 C 57.580014,2.527632 57.338138,2.510357 56.447715,2.510721 55.77531,2.511248 55.481248,2.523451 55.177566,2.561821 54.113691,2.698015 53.179409,2.94931 52.28744,3.338999 L 52.021834,3.455191 51.582087,3.023207 C 50.708519,2.165277 49.722141,1.480235 48.730199,1.041506 46.340044,-0.01566 43.923395,0.012379 41.629684,1.124606 40.977343,1.440961 40.489577,1.752679 39.82368,2.277453 39.76204,2.326003 39.75506,2.323643 39.511052,2.182353 39.373713,2.102893 39.089657,1.951969 38.880111,1.846978 37.107417,0.958718 35.160068,0.72377 33.361848,1.180392 l -0.267673,0.06764 -0.014,-0.06055 c -0.599663,-2.572212 -1.409416,-5.275377 -2.284509,-7.624038 -1.078999,-2.895928 -2.435343,-5.815148 -3.565503,-7.67513 -1.729214,-2.845868 -3.845709,-4.937707 -6.182276,-6.10941 -1.00442,-0.503681 -1.97804,-0.759194 -2.937664,-0.765813 z m -0.01491,3.546912 c 0.314989,0.0018 0.402611,0.01273 0.619572,0.0791 0.982589,0.298863 2.146773,1.074713 3.220836,2.146534 1.284984,1.282295 2.263034,2.72504 3.396015,5.010313 1.841999,3.715364 3.335712,7.979938 4.348883,12.417256 L 29.84492,2.93267 29.75295,3.0174 c -0.05044,0.04655 -0.292973,0.262242 -0.53896,0.479534 -0.245988,0.21731 -0.720329,0.664022 -1.054151,0.99265 L 27.553187,5.087453 27.225573,4.992903 C 26.433274,4.764847 25.440234,4.589723 24.572632,4.524735 24.00294,4.482005 22.65336,4.506185 22.14499,4.568195 21.3784,4.661475 20.67088,4.801707 20.01447,4.990887 l -0.324513,0.09346 v -0.06564 c 0,-0.17147 0.09314,-0.745175 0.17207,-1.058803 0.138921,-0.551975 0.407667,-1.18865 0.651094,-1.542481 l 0.0863,-0.125647 -0.151395,-0.130193 c -0.837032,-0.720536 -1.337047,-1.441509 -1.527483,-2.202849 -0.08317,-0.332465 -0.08157,-0.851402 0.0036,-1.174557 0.131066,-0.497317 0.431636,-0.952775 0.781313,-1.184886 l 0.157119,-0.104374 -0.213931,-0.107464 c -0.684222,-0.34374 -1.144026,-0.990524 -1.382797,-1.946572 -0.214111,-0.857293 -0.203101,-1.44549 0.0558,-3.048759 0.192392,-1.191323 0.219603,-1.447691 0.220132,-2.060235 0.0013,-1.215562 -0.27646,-1.931788 -0.873291,-2.249889 -0.682576,-0.363814 -1.622263,-0.158378 -2.243168,0.489861 -0.63199,0.659895 -0.962147,1.636435 -1.364193,4.036264 -0.6901,4.119163 -0.579911,8.561699 0.312628,12.61 0.191915,0.870459 0.474192,1.94388 0.628355,2.38992 l 0.0553,0.160195 -0.216514,0.197381 c -0.119065,0.108374 -0.331056,0.32412 -0.47075,0.479552 -0.139685,0.155468 -0.260981,0.283388 -0.269739,0.284716 -0.02622,0.0036 -0.439158,-1.299424 -0.591152,-1.865437 -0.573557,-2.135861 -0.976753,-4.713306 -1.169381,-7.473603 -0.08872,-1.271075 -0.110828,-1.952753 -0.1111,-3.44303 -7.93e-4,-2.765752 0.15505,-4.755564 0.505888,-6.46235 0.31711,-1.542681 0.812049,-2.904365 1.431371,-3.937037 0.728473,-1.214707 1.738957,-2.192611 2.800728,-2.71082 0.464427,-0.226675 0.68266,-0.280389 1.128561,-0.278007 z m 55.637307,1.060857 c 0.212183,0.0036 0.417128,0.03909 0.621128,0.104918 0.833273,0.268569 1.892566,1.072913 2.623994,1.992557 1.256056,1.579212 2.060818,3.95082 2.369772,6.98476 0.421164,4.135945 0.157469,9.36326 -0.678478,13.453328 -0.07692,0.375943 -0.149286,0.708954 -0.160741,0.739975 -0.01964,0.05328 -0.03091,0.05019 -0.202563,-0.05837 -0.130921,-0.08273 -0.786542,-0.450203 -0.923936,-0.517773 -0.0036,-0.0016 0.01273,-0.08419 0.03564,-0.182925 0.231457,-0.992178 0.502772,-2.826067 0.617509,-4.17784 0.149468,-1.762337 0.149468,-3.804499 0,-5.601984 -0.163106,-1.96048 -0.606327,-4.476993 -0.960613,-5.455733 -0.217455,-0.600726 -0.559703,-1.136718 -0.916698,-1.435508 -0.564941,-0.472824 -1.417671,-0.625946 -1.991012,-0.357595 -0.816235,0.38207 -1.12359,1.591867 -0.870185,3.424955 0.02473,0.17838 0.08764,0.584943 0.140012,0.903262 0.19949,1.212797 0.245621,1.800067 0.185507,2.356334 -0.142376,1.317061 -0.669186,2.243488 -1.518188,2.669999 l -0.206182,0.103281 0.140558,0.08983 c 0.176197,0.113101 0.437984,0.393853 0.562722,0.603563 0.05255,0.08837 0.130375,0.265805 0.173652,0.394271 0.293462,0.873295 0.108919,1.740989 -0.56274,2.643632 -0.161651,0.217256 -0.637475,0.713117 -0.896534,0.934282 l -0.145649,0.124011 0.113646,0.183435 c 0.219965,0.354885 0.538502,1.101951 0.59218,1.389522 0.0091,0.04437 -0.03873,0.04964 -0.526556,0.0631 -1.931824,0.05273 -3.688579,0.464023 -5.312085,1.243273 C 65.654652,6.418473 65.60372,6.435966 65.571171,6.396362 65.491531,6.299442 64.839453,5.719193 64.533044,5.472954 63.857148,4.929779 63.056914,4.403023 62.334832,4.026081 62.139033,3.92389 61.974419,3.836955 61.968982,3.832828 c -0.01637,-0.01273 0.244621,-1.144556 0.475405,-2.057145 0.943702,-3.731692 2.293366,-7.450219 3.896216,-10.732689 1.153883,-2.363026 2.171391,-3.878341 3.48127,-5.185475 0.578814,-0.577596 1.059093,-0.974249 1.654091,-1.365756 0.92019,-0.605453 1.620051,-0.88175 2.256598,-0.871222 z M 44.850458,3.8204 h 5.28e-4 c 1.139645,-0.117465 2.434086,0.287389 3.533474,1.105825 0.381379,0.283916 1.068512,0.979395 1.381249,1.397777 0.663894,0.888169 1.054056,1.727934 1.39365,3.000701 l 0.03364,0.127102 0.02473,-0.113101 c 0.121466,-0.563286 0.445694,-1.171358 0.869149,-1.629289 0.825455,-0.892642 2.210795,-1.507969 3.739657,-1.660801 0.503426,-0.05037 1.309988,-0.01946 1.826669,0.06982 2.104022,0.363323 3.964495,1.331153 5.483137,2.852414 0.587106,0.588107 1.207252,1.376576 1.380194,1.754336 0.0391,0.08528 0.113647,0.204618 0.165833,0.265606 0.05219,0.06091 0.182107,0.282679 0.288334,0.492443 0.106192,0.209764 0.202273,0.381361 0.213419,0.381361 0.03673,0 0.365378,-0.404381 0.538448,-0.661949 0.09328,-0.138922 0.225201,-0.362123 0.292462,-0.496062 0.100554,-0.200309 0.174197,-0.296063 0.415982,-0.540521 0.3081,-0.311481 0.440002,-0.401726 0.976631,-0.670204 1.675766,-0.838383 3.709508,-1.156756 5.609221,-0.87795 1.492131,0.219001 2.923039,0.800962 4.053302,1.648927 1.715769,1.28724 2.966406,3.153059 3.520546,5.252662 0.203417,0.770704 0.286479,1.411288 0.294535,2.269509 l 0.0055,0.660912 0.307972,0.12292 c 1.331117,0.53132 2.581591,1.351574 3.64923,2.393011 0.995197,0.970812 1.71106,1.944843 2.312404,3.14644 0.29648,0.592434 0.449166,0.959448 0.641274,1.54039 0.828746,2.506184 0.68366,5.304048 -0.409254,7.885457 -0.589888,1.393286 -1.430962,2.622976 -2.521695,3.687452 -0.369123,0.360141 -0.415763,0.415745 -0.371014,0.440784 0.02818,0.01637 0.198163,0.127102 0.377742,0.247513 1.794922,1.202978 2.950223,3.204572 3.289562,5.699119 0.09874,0.7253 0.08637,1.786121 -0.03055,2.596628 -0.333902,2.31635 -1.523061,4.30727 -3.263723,5.466063 -0.152923,0.101827 -0.273661,0.189362 -0.268715,0.194308 0.0055,0.0055 0.148195,0.06728 0.318319,0.138558 2.332805,0.977358 4.078068,3.243849 4.491504,5.833476 0.07201,0.451167 0.07128,1.544791 -0.0011,1.983757 -0.408454,2.481054 -1.918751,4.583348 -4.068304,5.662952 -0.217291,0.109101 -0.389725,0.206855 -0.382906,0.217037 0.0073,0.01091 0.119829,0.06692 0.250622,0.126012 0.821472,0.371069 1.664328,0.969339 2.390447,1.696967 1.381139,1.384049 2.260508,3.126548 2.557334,5.067155 0.05146,0.336229 0.06291,0.534901 0.06455,1.114607 0.0013,0.438529 -0.01273,0.801707 -0.03455,0.959575 -0.278315,1.934321 -1.108006,3.633771 -2.444706,5.006191 -1.087877,1.11695 -2.267526,1.85369 -3.649211,2.27934 -0.143286,0.0442 -0.260714,0.0864 -0.260442,0.094 2e-4,0.007 0.11692,0.0971 0.258896,0.19791 0.328065,0.23302 0.89366,0.77692 1.187977,1.14252 1.077113,1.33797 1.656509,3.10233 1.590013,4.8403 -0.02746,0.71899 -0.137831,1.31957 -0.362759,1.97394 -0.808872,2.35269 -3.04665,4.0549 -5.793692,4.40728 -0.412873,0.0529 -1.338081,0.0454 -1.735207,-0.0145 -0.616472,-0.0922 -1.276421,-0.27801 -1.762591,-0.49659 l -0.196363,-0.0884 0.168924,0.17783 c 0.416182,0.43791 0.663622,0.93667 0.76063,1.53265 0.22562,1.3861 -0.512754,3.09901 -1.801867,4.18093 -0.604144,0.50704 -1.289295,0.85002 -2.023033,1.0123 -0.296226,0.0655 -1.321916,0.082 -1.707313,0.0275 -1.177395,-0.16656 -2.343916,-0.65018 -3.471451,-1.43913 -1.066476,-0.74619 -2.172591,-1.82808 -3.126293,-3.05754 -0.130739,-0.16856 -0.164197,-0.19791 -0.178743,-0.15547 -0.05619,0.16347 -0.256114,0.61439 -0.342594,0.77202 -0.846456,1.54275 -2.378118,2.66867 -4.127218,3.03428 -0.437602,0.0915 -1.244182,0.12547 -1.68302,0.0713 -2.143225,-0.26437 -4.047829,-1.71728 -4.847536,-3.6983 -0.102918,-0.2551 -0.106373,-0.25439 -0.15765,0.0258 -0.04964,0.27176 -0.180743,0.64971 -0.326065,0.93942 -0.694297,1.38474 -2.227014,2.40229 -3.991824,2.64984 -0.414291,0.0582 -1.185268,0.0444 -1.593104,-0.0284 -0.393052,-0.07 -0.985868,-0.2612 -1.360574,-0.43871 -0.229238,-0.10856 -0.274842,-0.12128 -0.354995,-0.0982 -0.181288,0.0525 -0.735846,0.1111 -1.054147,0.1111 -1.176467,0 -2.354243,-0.37762 -3.323159,-1.065 -0.323942,-0.22982 -0.901025,-0.81366 -1.109442,-1.12236 -0.318644,-0.47198 -0.556636,-1.03907 -0.638174,-1.5218 l -0.0372,-0.22066 -0.08061,0.20826 c -0.530851,1.36881 -1.620848,2.53462 -2.99244,3.20017 -0.829764,0.40263 -1.585263,0.58358 -2.455547,0.58805 -0.699345,0.004 -1.291975,-0.0977 -1.947076,-0.3333 -1.608127,-0.57825 -2.990203,-1.90259 -3.572738,-3.42341 -0.03717,-0.0969 -0.07417,-0.1762 -0.08217,-0.1762 -0.008,0 -0.08428,0.0915 -0.169488,0.2036 -0.443159,0.58341 -1.161413,1.37461 -1.745548,1.92226 -1.476832,1.38463 -3.055167,2.25147 -4.575731,2.51342 -1.74854,0.30125 -3.127974,-0.11637 -4.319431,-1.30786 -0.463325,-0.46333 -0.806946,-0.94805 -1.072233,-1.51146 -0.693844,-1.4736 -0.560729,-2.93699 0.353966,-3.89105 0.0875,-0.0913 0.142267,-0.15892 0.121956,-0.15038 -1.03886,0.4328 -1.663655,0.57571 -2.633306,0.60355 -1.731185,0.0498 -3.469163,-0.53934 -4.825832,-1.63598 -0.305894,-0.24728 -0.861504,-0.82462 -1.09239,-1.13478 -0.657622,-0.88337 -1.055213,-1.89656 -1.21227,-3.0901 -0.0568,-0.4317 -0.04217,-1.35267 0.02893,-1.82047 0.307133,-2.02066 1.312901,-3.72597 2.832251,-4.80207 L 11.418,81.549 11.087285,81.44354 C 9.774326,81.02495 8.592831,80.29438 7.589476,79.27995 6.833011,78.51511 6.279966,77.74143 5.847028,76.84248 4.775281,74.617118 4.7129192,72.283894 5.663068,69.972418 6.121321,68.857611 6.74482,67.929202 7.637016,67.032687 c 0.761247,-0.764922 1.549464,-1.321916 2.433845,-1.719188 0.119756,-0.05382 0.218567,-0.105827 0.219096,-0.115828 5.29e-4,-0.0091 -0.08317,-0.05364 -0.185509,-0.0971 -0.38912,-0.16547 -1.038848,-0.56485 -1.436537,-0.883114 -1.543818,-1.235473 -2.563615,-2.997155 -2.85292,-4.928143 -0.06273,-0.418746 -0.07142,-1.39325 -0.016,-1.792067 0.09261,-0.66644 0.288091,-1.373902 0.545677,-1.974973 0.769893,-1.796504 2.24592,-3.289471 3.966495,-4.012481 l 0.345183,-0.145285 -0.161742,-0.09928 C 9.740392,50.801223 8.937467,50.011681 8.409043,49.214284 6.728989,46.679061 6.529192,43.095673 7.909353,40.263842 c 0.370638,-0.760485 0.817881,-1.385086 1.433955,-2.00134 0.424798,-0.42491 0.829935,-0.751084 1.230358,-0.991105 l 0.212378,-0.127648 -0.525006,-0.526046 C 9.972267,36.328277 9.599527,35.919842 9.432705,35.710314 8.074459,34.004255 7.236139,31.967058 6.960102,29.699585 c -0.04971,-0.408472 -0.06704,-1.590339 -0.02997,-2.035942 0.17147,-2.0612 0.892519,-3.97955 2.139819,-5.691901 1.26142,-1.731716 3.040273,-3.130948 4.936933,-3.883814 l 0.343633,-0.136376 v -0.581851 c -1.89e-4,-0.319792 0.01364,-0.721154 0.031,-0.891897 0.17787,-1.742989 0.849991,-3.446539 1.911417,-4.844953 1.570069,-2.068546 3.741569,-3.288453 6.344533,-3.564477 0.791077,-0.08383 1.862922,-0.04382 2.666894,0.09965 1.243663,0.222165 2.496755,0.715645 3.448724,1.357992 L 28.91379,9.634571 28.87246,9.535831 C 28.728938,9.192365 29.312657,8.342163 30.528093,7.122655 31.38785,6.260034 31.974631,5.747316 32.518575,5.38383 c 1.015093,-0.678333 2.061232,-0.982559 3.04463,-0.885696 0.793562,0.07819 1.605881,0.373978 2.40594,0.876386 1.270594,0.797906 2.171093,1.782866 2.485003,2.717021 l 0.08268,0.245458 0.014,-0.417019 c 0.02077,-0.608944 0.167451,-1.120499 0.474885,-1.656655 0.769062,-1.341263 2.238746,-2.280237 3.823867,-2.443669 z"
     clip-path="url(#clipPath4270)"
     transform="translate(0,20.987389)" />
</svg>
