<?xml version="1.0" encoding="UTF-8" standalone="no"?>
<svg
   width="96.109604"
   height="96.299797"
   viewBox="0 0 96.109604 96.299798"
   version="1.1"
   id="svg843"
   sodipodi:docname="lama-pilot.svg"
   inkscape:version="1.1.1 (c3084ef, 2021-09-22)"
   xmlns:inkscape="http://www.inkscape.org/namespaces/inkscape"
   xmlns:sodipodi="http://sodipodi.sourceforge.net/DTD/sodipodi-0.dtd"
   xmlns="http://www.w3.org/2000/svg"
   xmlns:svg="http://www.w3.org/2000/svg">
  <defs
     id="defs847">
    <clipPath
       clipPathUnits="userSpaceOnUse"
       id="clipPath4270">
      <rect
         style="opacity:0.5;fill:#ffffff;fill-opacity:1;stroke:#000000;stroke-width:1;stroke-miterlimit:4;stroke-dasharray:none;stroke-opacity:1"
         id="rect4272"
         width="151.6218"
         height="98.619331"
         x="-22.156767"
         y="-36.059052" />
    </clipPath>
    <clipPath
       clipPathUnits="userSpaceOnUse"
       id="clipPath4270-9">
      <rect
         style="opacity:0.5;fill:#ffffff;fill-opacity:1;stroke:#000000;stroke-width:1;stroke-miterlimit:4;stroke-dasharray:none;stroke-opacity:1"
         id="rect4272-0"
         width="151.6218"
         height="98.619331"
         x="-22.156767"
         y="-36.059052" />
    </clipPath>
    <clipPath
       clipPathUnits="userSpaceOnUse"
       id="clipPath4471">
      <rect
         style="opacity:0.5;fill:#ffffff;fill-opacity:1;stroke:#000000;stroke-width:1;stroke-miterlimit:4;stroke-dasharray:none;stroke-opacity:1"
         id="rect4473"
         width="32.149033"
         height="53.871353"
         x="4.7647643"
         y="-36.236782" />
    </clipPath>
    <clipPath
       clipPathUnits="userSpaceOnUse"
       id="clipPath4270-0">
      <rect
         style="opacity:0.5;fill:#ffffff;fill-opacity:1;stroke:#000000;stroke-width:1;stroke-miterlimit:4;stroke-dasharray:none;stroke-opacity:1"
         id="rect4272-4"
         width="151.6218"
         height="98.619331"
         x="-22.156767"
         y="-36.059052" />
    </clipPath>
  </defs>
  <sodipodi:namedview
     id="namedview845"
     pagecolor="#ffffff"
     bordercolor="#666666"
     borderopacity="1.0"
     inkscape:pageshadow="2"
     inkscape:pageopacity="0.0"
     inkscape:pagecheckerboard="0"
     showgrid="false"
     inkscape:zoom="8"
     inkscape:cx="73.0625"
     inkscape:cy="40.5625"
     inkscape:window-width="2560"
     inkscape:window-height="1027"
     inkscape:window-x="0"
     inkscape:window-y="25"
     inkscape:window-maximized="1"
     inkscape:current-layer="svg843"
     fit-margin-top="0"
     fit-margin-left="0"
     fit-margin-right="0"
     fit-margin-bottom="0" />
  <path
     id="path841"
     d="M 11.064084,2.0037709e-4 C 10.099108,-0.00636392 9.143214,0.14786408 8.2398654,0.53535658 2.6493708,3.6829745 3.1686198,11.377703 5.3316623,16.533403 7.46677,21.86619 10.184866,27.071992 13.776975,31.560747 c 0.970553,1.093052 1.981715,1.557665 2.996093,1.595703 -1.060579,2.196777 -1.755737,4.54611 -1.923828,6.976562 0.460869,3.050284 -1.548452,5.570331 -2.513672,8.320313 -0.631646,4.936425 -6.5763957,3.93306 -8.7539057,7.99414 -2.1324403,2.652502 -3.94967533,5.746321 -3.51757806,9.269532 0.31075911,4.133886 -1.0401338,8.820995 1.86718746,12.300781 7.0115424,7.944206 17.1162773,12.373542 27.0585933,15.460937 18.533244,5.838008 39.15726,2.282308 55.658203,-7.597656 C 89.017822,82.647125 95.594245,79.3172 96.064084,73.134965 95.870252,69.195917 96.494104,65.158379 95.6676,61.291215 93.427708,57.076974 90.260418,52.578598 85.194943,51.699419 l -3.898437,-9.025391 c 0.140128,-1.83532 -0.03345,-3.640646 -0.453125,-5.386719 3.402418,-1.465054 6.727981,-3.163673 8.351562,-6.705078 C 92.862141,24.575929 96.726192,17.70977 95.810178,10.420122 95.397534,6.9250507 92.625505,3.460023 89.040646,3.3654347 88.528524,3.3519221 87.999364,3.4054607 87.458615,3.5392629 80.131814,4.8270589 74.940569,10.927542 70.347287,16.287309 69.557102,18.0655 66.955313,19.202045 66.087522,20.420122 56.235419,15.527051 44.23459,15.017644 33.884396,18.793169 33.765898,18.340696 33.562633,17.851907 33.25549,17.318559 28.48152,10.97475 23.104609,4.4803274 15.771115,1.0353566 14.305801,0.46930878 12.672378,0.01114088 11.064084,2.0037709e-4 Z M 11.245725,3.6603566 c 4.874206,0.096658 8.80499,4.2923849 12.199218,7.4511714 1.918229,2.797249 7.344505,5.41185 4.242188,9.173828 -2.596503,-0.95083 -6.635816,4.567146 -7.476563,2.208985 0.823828,-2.773386 -4.478646,-2.988378 -2.927734,-5.888672 -4.157537,-0.01146 -3.100688,-10.9623918 -7.5078123,-6.259766 -0.2933114,4.862855 2.2389193,9.532323 4.6230463,13.644531 1.392338,1.262691 4.776534,6.924765 1.244141,3.78711 C 11.59427,22.313886 7.7881196,15.997674 7.3179904,9.0607475 7.372158,7.1740366 7.9170119,4.7577219 9.700803,3.7677785 c 0.52484,-0.083434 1.040693,-0.117421 1.544922,-0.1074219 z m 77.402343,3.40625 c 0.469008,-5.427e-4 0.947316,0.041336 1.433594,0.1289063 4.339042,3.6560741 1.863515,10.0621851 0.002,14.4335931 -1.412038,2.067226 -3.760648,9.895255 -5.693359,7.660156 3.054296,-4.420782 5.522442,-9.584912 5.78125,-15.007812 -2.517725,-5.1422095 -4.616386,2.588008 -5.621094,4.775391 -3.186342,0.649218 -1.119747,4.703549 -4.728516,5.386718 0.482011,2.706851 -5.214526,-0.0412 -6.613281,-0.230468 -4.28395,-3.893005 1.579672,-7.195904 4.021485,-10.34961 3.147373,-2.917965 6.884227,-6.7916278 11.417968,-6.7968744 z M 60.610959,30.521684 c 0.585709,0.02932 1.182689,0.130668 1.78125,0.310547 5.170761,0.724681 12.323748,2.545956 12.824219,8.855469 0.124853,4.120589 0.205939,9.175934 -3.097656,12.15625 -5.123288,2.439011 -12.537596,2.096348 -16.361329,-2.574219 -2.100339,-3.301092 -2.31056,-7.398409 -2.24414,-11.199219 -0.537435,-4.440975 2.997693,-7.754036 7.097656,-7.548828 z m -24.683594,0.121094 c 2.541031,0.0038 4.834887,0.803809 5.958985,3.429687 1.359236,4.951631 1.032078,10.676077 -1.515625,15.197266 -3.110542,4.29073 -8.911891,4.290928 -13.601563,3.679688 -4.891861,-0.584126 -5.728199,-6.175717 -5.923828,-10.140625 -0.92245,-5.109292 2.636115,-9.847062 7.646484,-10.822266 2.106455,-0.556379 4.894516,-1.347535 7.435547,-1.34375 z m 12.902344,9.228516 c 0.638258,0.02761 1.195075,0.17907 1.539063,0.492187 3.685425,1.876077 -2.079612,4.272482 -3.88086,2.910156 -4.73097,-1.327158 -0.423989,-3.521973 2.341797,-3.402343 z m -1.396484,12.111328 c 4.031858,-0.05733 5.782695,4.470113 9.791015,5.8125 6.268412,2.036639 14.287705,2.569242 19.576172,-2.052735 1.80433,-6.412859 2.397526,-2.430291 3.263672,-0.789062 v 26.126953 c -2.901467,3.793623 -9.912761,4.783167 -14.625,6.642578 -16.389161,5.192588 -34.545544,2.226025 -49.375,-6.097656 V 54.953325 l 0.765625,-1.775391 c 1.204055,0.162761 3.768794,4.923847 6.689453,5.089844 7.512414,2.10174 17.472346,1.220284 22.033203,-5.957031 0.68233,-0.217981 1.30488,-0.319936 1.88086,-0.328125 z" />
  <path
     style="fill:#000000;stroke-width:0.0325497"
     d="m 63.769334,71.758834 c -4.011547,-3.265367 0.269427,-11.048456 5.464977,-10.343691 5.293324,-0.983278 9.992167,8.209464 4.861974,10.385628 -3.156255,-0.967563 -1.2906,-8.745294 -6.667865,-5.785605 -2.201755,1.36366 0.362998,6.269534 -3.659086,5.743668 z"
     id="path1363" />
  <path
     style="fill:#000000;stroke-width:0.0325497"
     d="m 22.098173,71.778556 c -3.9433,-2.894208 -0.312918,-10.321915 4.508126,-10.321411 4.703017,-0.765143 8.635571,3.670985 7.863698,8.263915 -1.13679,4.601134 -5.644894,0.306788 -4.388022,-2.887934 -3.514686,-3.848315 -6.170038,1.117361 -6.111955,4.362666 -0.448624,0.567015 -1.212397,0.653291 -1.871847,0.582764 z"
     id="path1361" />
  <path
     style="fill:#000000;stroke-width:0.0325497"
     d="m 52.418195,88.550173 c -2.737938,-1.163154 -4.201947,-2.893533 -6.881219,-0.38445 -4.330607,1.300333 -3.596684,-4.703709 0.192306,-4.525161 1.616952,-1.315005 0.567203,-3.654785 0.862555,-5.472882 0.428899,-1.820237 -0.426497,-3.05409 -1.936887,-3.988886 -5.083702,-1.749042 -0.693639,-7.996058 2.269898,-3.431596 2.095172,3.648489 6.05713,-5.637833 7.640703,0.313915 -0.08845,2.637814 -4.419104,3.098038 -3.904878,5.835566 0.116865,1.948843 -0.235682,4.041881 0.177013,5.899849 0.914083,1.499671 7.783506,3.819296 1.580509,5.753645 z"
     id="path1359" />
</svg>
